<?xml version="1.0" encoding="UTF-8"?>
<svg width="1200" height="295" viewBox="0 0 1200 295" xmlns="http://www.w3.org/2000/svg">
  <title>ZENTRO tekst vector</title>
  <defs>
    <linearGradient id="zentroGradient" x1="50" y1="295" x2="1150" y2="0" gradientUnits="userSpaceOnUse">
      <stop offset="0%" stop-color="#7426ff"/>
      <stop offset="45%" stop-color="#187cff"/>
      <stop offset="100%" stop-color="#10f0e8"/>
    </linearGradient>
  </defs>

  <!-- Alleen tekst, echte vector-paden, transparante achtergrond -->
  <g id="zentro_text_vector">
    <path d="M53.008,48.559 L208.336,48.559 L208.336,68.981 L83.345,223.758 L211.387,223.758 L211.387,246.257 L50.000,246.257 L50.000,225.877 L174.991,71.100 L53.008,71.100 L53.008,48.559 Z M250.171,48.559 L375.162,48.559 L375.162,71.100 L276.906,71.100 L276.906,129.613 L371.052,129.613 L371.052,152.111 L276.906,152.111 L276.906,223.758 L377.535,223.758 L377.535,246.257 L250.171,246.257 L250.171,48.559 Z M421.504,48.559 L457.518,48.559 L545.181,213.928 L545.181,48.559 L571.112,48.559 L571.112,246.257 L535.097,246.257 L447.477,80.887 L447.477,246.257 L421.504,246.257 L421.504,48.559 Z M596.936,48.559 L764.170,48.559 L764.170,71.100 L694.005,71.100 L694.005,246.257 L667.143,246.257 L667.143,71.100 L596.936,71.100 L596.936,48.559 Z M883.753,153.551 Q892.354,156.475 900.489,166.008 Q908.624,175.541 916.844,192.235 L944.003,246.257 L915.234,246.257 L889.982,195.540 Q880.152,175.669 870.958,169.186 Q861.763,162.703 845.875,162.703 L816.724,162.703 L816.724,246.257 L789.989,246.257 L789.989,48.559 L850.366,48.559 Q884.262,48.559 900.955,62.753 Q917.649,76.904 917.649,105.504 Q917.649,124.189 908.963,136.519 Q900.278,148.806 883.753,153.551 Z M816.724,70.549 L816.724,140.713 L850.366,140.713 Q869.687,140.713 879.559,131.773 Q889.431,122.833 889.431,105.504 Q889.431,88.175 879.559,79.362 Q869.687,70.549 850.366,70.549 L816.724,70.549 Z M1058.651,66.693 Q1029.500,66.693 1012.340,88.429 Q995.223,110.122 995.223,147.620 Q995.223,184.948 1012.340,206.683 Q1029.500,228.377 1058.651,228.377 Q1087.759,228.377 1104.791,206.683 Q1121.824,184.948 1121.824,147.620 Q1121.824,110.122 1104.791,88.429 Q1087.759,66.693 1058.651,66.693 Z M1058.651,45.000 Q1100.215,45.000 1125.087,72.879 Q1150.000,100.759 1150.000,147.620 Q1150.000,194.354 1125.087,222.233 Q1100.215,250.112 1058.651,250.112 Q1016.959,250.112 991.961,222.318 Q967.005,194.481 967.005,147.620 Q967.005,100.759 991.961,72.879 Q1016.959,45.000 1058.651,45.000 Z" fill="url(#zentroGradient)" fill-rule="nonzero"/>
  </g>
</svg>
